PathFileType	4	(X/Y/Z)	./resultDataOpenSim/trcMotMarkerGrf/sub10/qtm-12-05.trc
DataRate	CameraRate	NumFrames	NumMarkers	Units	OrigDataRate	OrigDataStartFrame	OrigNumFrames
250.000000	250.000000	12	24	m	250.000000	254	507
Frame#	Time	L.Toe.Tip			R.Toe.Tip			L.Ankle.Lat			R.Ankle.Lat			L.Ankle.Med			R.Ankle.Med			L.Heel			R.Heel			L.Knee.Lat			R.Knee.Lat			L.Knee.Med			R.Knee.Med			L.Thigh.Upper			R.Thigh.Upper			L.ASIS			R.ASIS			V.Sacral			L.Acromium			R.Acromium			C7			L.Elbow			R.Elbow			L.Wrist.Lat			R.Wrist.Lat
		X1	Y1	Z1	X2	Y2	Z2	X3	Y3	Z3	X4	Y4	Z4	X5	Y5	Z5	X6	Y6	Z6	X7	Y7	Z7	X8	Y8	Z8	X9	Y9	Z9	X10	Y10	Z10	X11	Y11	Z11	X12	Y12	Z12	X13	Y13	Z13	X14	Y14	Z14	X15	Y15	Z15	X16	Y16	Z16	X17	Y17	Z17	X18	Y18	Z18	X19	Y19	Z19	X20	Y20	Z20	X21	Y21	Z21	X22	Y22	Z22	X23	Y23	Z23	X24	Y24	Z24

254	1.012	-0.029261978	0.015970918	-0.16700623	0.23614514	0.090476114	0.064707715	-0.16156246	0.044693723	-0.19151014	0.09827404	0.12130884	0.04339952	-0.14770869	0.065358104	-0.10509304	0.15128523	0.13389968	-0.028430889	-0.23124467	0.021055318	-0.14790921	0.067390744	0.090398059	-0.016578501	-0.005619146	0.39844304	-0.22414332	0.19584673	0.50503624	0.051953888	-0.0070775733	0.37988324	-0.10279371	0.23884193	0.50959695	-0.069210459	-0.026040683	0.79091361	-0.30070946	-0.054423085	0.80773756	0.076876319	0.017528326	0.90121693	-0.234017	0.010901324	0.9082194	0.0096708885	-0.1862905	0.91198269	-0.11143984	-0.0027066184	1.3617033	-0.28089465	-0.058102756	1.3738276	0.038191922	-0.11063219	1.400302	-0.14190366	-0.060041068	1.0322023	-0.38515917	-0.14579611	1.0499075	0.14547136	0.11334369	0.88943447	-0.49951534	-0.032574796	0.9085208	0.31507528
255	1.016	-0.029234149	0.015951176	-0.16704198	0.25679346	0.090664321	0.065001717	-0.16144755	0.044862593	-0.1914925	0.11776973	0.11747167	0.044310746	-0.1475809	0.065594334	-0.10492962	0.17040974	0.13199758	-0.027737592	-0.23118886	0.021362787	-0.14767961	0.087887948	0.085865066	-0.015902068	-0.0045834156	0.39825064	-0.22433861	0.20235651	0.50565301	0.052353746	-0.0065191919	0.3797132	-0.10288638	0.24468402	0.51082467	-0.068877453	-0.021986533	0.79107524	-0.30065907	-0.048149432	0.80831929	0.077281368	0.022055014	0.90132496	-0.23431926	0.017039785	0.9081916	0.0095445137	-0.1807969	0.91235898	-0.11041532	0.002439908	1.3619608	-0.28088961	-0.051992694	1.3739555	0.038394023	-0.10503118	1.4005466	-0.14154898	-0.053068012	1.0325617	-0.38451422	-0.14263033	1.051203	0.14552673	0.12236317	0.89117201	-0.49868281	-0.033392591	0.9078467	0.31587208
256	1.02	-0.029201475	0.015938083	-0.16710475	0.27734164	0.090918381	0.065042814	-0.1612633	0.045036262	-0.19149624	0.1372964	0.11389044	0.045044418	-0.14741953	0.065878671	-0.10474954	0.18941153	0.13031524	-0.027106698	-0.23111823	0.021705787	-0.14739682	0.10830724	0.081676998	-0.015228931	-0.0034347333	0.39810903	-0.22460476	0.20874838	0.50600688	0.052787737	-0.0058729634	0.37957139	-0.10303915	0.2503571	0.51175394	-0.068496512	-0.01807119	0.79122365	-0.30060591	-0.041874913	0.80889162	0.077682183	0.026504507	0.90142527	-0.23463973	0.023195569	0.90817041	0.009480214	-0.1754309	0.91262064	-0.10953069	0.0075764968	1.3622155	-0.28086859	-0.04588743	1.3740694	0.038601989	-0.099543548	1.4007996	-0.14100183	-0.045922652	1.0329583	-0.38420646	-0.1394793	1.0524909	0.14553592	0.13131654	0.89292938	-0.49777848	-0.034192618	0.90722544	0.31651388
257	1.024	-0.029186531	0.015943392	-0.16718556	0.29776017	0.091258796	0.064816979	-0.16113475	0.045228582	-0.19137662	0.15688038	0.11059073	0.045617066	-0.14718005	0.066199266	-0.10455069	0.20824508	0.12885144	-0.026549409	-0.23103841	0.022088416	-0.14704967	0.12856793	0.077848965	-0.014501035	-0.0021399503	0.39802232	-0.22496616	0.21499191	0.50610098	0.05326472	-0.0049698539	0.37942543	-0.10332547	0.25588134	0.51237685	-0.068067367	-0.014365832	0.79136193	-0.30060606	-0.035593256	0.8094529	0.078087776	0.030912699	0.90151764	-0.2349683	0.029374396	0.90815991	0.0094740291	-0.17071891	0.91266808	-0.10900792	0.012664149	1.3624736	-0.28081603	-0.039784999	1.3741664	0.038821727	-0.09410978	1.4010685	-0.14036875	-0.039077991	1.0333004	-0.38427148	-0.13635249	1.0537711	0.14548172	0.14021305	0.89470323	-0.49678894	-0.034964588	0.90665937	0.31701085
258	1.028	-0.029284914	0.01597904	-0.16717885	0.31801221	0.09171924	0.06432881	-0.16112663	0.045444802	-0.19104776	0.17651124	0.10752186	0.046170584	-0.14684109	0.066542689	-0.10433226	0.2268669	0.12761195	-0.026057611	-0.23095197	0.022509291	-0.14662465	0.1486281	0.074362735	-0.013685377	-0.00076043508	0.39796891	-0.22539029	0.22109343	0.5059235	0.053782946	-0.0038199606	0.37927075	-0.10372995	0.26127993	0.51268071	-0.067592822	-0.01085936	0.79149571	-0.30067816	-0.029294631	0.80999855	0.07850449	0.035302599	0.90160152	-0.23529997	0.035575465	0.90816237	0.0095197262	-0.16720551	0.91244773	-0.10904447	0.017698519	1.3627389	-0.28071893	-0.033684316	1.374244	0.039055376	-0.088670838	1.4013368	-0.13976431	-0.032541353	1.0335348	-0.3845743	-0.13325529	1.0550414	0.14533599	0.14906523	0.89648713	-0.49569385	-0.035693841	0.90615107	0.31736797
259	1.032	-0.029538942	0.016041695	-0.16700736	0.33805919	0.092340624	0.063589063	-0.16120739	0.045691899	-0.19054793	0.19615698	0.10461182	0.04677081	-0.14640572	0.066893234	-0.10411955	0.24522944	0.12660326	-0.025621094	-0.23085836	0.02296547	-0.1461108	0.1684603	0.071179814	-0.012767474	0.00051051532	0.39790886	-0.22576272	0.22705186	0.5054472	0.054313562	-0.002571877	0.37913559	-0.10416492	0.26657718	0.51265491	-0.067082074	-0.0074560039	0.79162851	-0.30076235	-0.022972518	0.81052087	0.078929029	0.039689042	0.90167885	-0.23563065	0.041796579	0.90818235	0.0096108569	-0.16460366	0.9120577	-0.10959176	0.022708016	1.3630091	-0.28058273	-0.027594238	1.3743038	0.039300955	-0.083206927	1.4015858	-0.13922267	-0.026083106	1.0336576	-0.38491885	-0.13018918	1.0562993	0.14509479	0.15788868	0.89827797	-0.49447743	-0.036369731	0.90570278	0.31758583
260	1.036	-0.029820608	0.016109183	-0.16676573	0.35786427	0.09316501	0.062608407	-0.16129109	0.045979932	-0.18999916	0.21573366	0.10188143	0.047384342	-0.14590242	0.067241912	-0.10392821	0.26328103	0.12581713	-0.02523398	-0.23075424	0.023459435	-0.14550871	0.188029	0.068288606	-0.011777607	0.0014123835	0.39778807	-0.22591964	0.23285748	0.50464622	0.054827752	-0.0013314936	0.37904777	-0.1045599	0.27179081	0.51229715	-0.066547504	-0.0040566651	0.79176401	-0.30076472	-0.016626877	0.81101513	0.079353802	0.044081323	0.90175245	-0.23595595	0.048039448	0.90822513	0.0097437768	-0.16151999	0.91163204	-0.11044546	0.027722465	1.363283	-0.28042344	-0.021517047	1.3743491	0.039550699	-0.077722084	1.4018084	-0.13871827	-0.019563813	1.033697	-0.38519308	-0.12716868	1.0575377	0.14479235	0.16668301	0.90007881	-0.49315008	-0.036988423	0.9053142	0.31766849
261	1.04	-0.029982848	0.016161093	-0.16659599	0.37738799	0.094229849	0.061405665	-0.16131639	0.046314511	-0.18949558	0.23508354	0.099452893	0.047977004	-0.14539201	0.067594249	-0.10372066	0.28097243	0.12522982	-0.024885846	-0.23063556	0.023999455	-0.14483242	0.20729401	0.065719305	-0.01079599	0.0018130334	0.39756679	-0.22576076	0.23853369	0.50353946	0.055358205	-0.00010287371	0.37901239	-0.10489396	0.27692536	0.5116131	-0.066001807	-0.00061503611	0.79191008	-0.3006492	-0.010259133	0.81148585	0.079775282	0.048479165	0.90182313	-0.2362726	0.054308782	0.90829366	0.0099165501	-0.156945	0.91124368	-0.11127934	0.032751679	1.3635644	-0.28025106	-0.015444792	1.3743819	0.039795542	-0.072228042	1.4020059	-0.13822034	-0.013099411	1.0337043	-0.38533372	-0.12422594	1.0587463	0.1444614	0.1754236	0.90189518	-0.4917482	-0.037551116	0.90498008	0.31762446
262	1.044	-0.030021926	0.016193132	-0.16652113	0.39658013	0.095551181	0.060015611	-0.16127945	0.046692667	-0.18904401	0.25405915	0.097429874	0.048562165	-0.14494394	0.067963867	-0.10343808	0.29826515	0.12482063	-0.024570186	-0.23050183	0.024591221	-0.14411004	0.22621443	0.063499496	-0.0098737595	0.0018955785	0.39727706	-0.22538404	0.24413574	0.50219681	0.055957334	0.001153444	0.37901582	-0.10517186	0.28197294	0.51061336	-0.06545508	0.0028503415	0.79207128	-0.30047936	-0.0038653638	0.81194077	0.080191976	0.05287748	0.90189086	-0.23657759	0.060610448	0.90838789	0.010124451	-0.15157876	0.91104513	-0.11142395	0.037789968	1.3638545	-0.28006403	-0.0093736299	1.374407	0.040033515	-0.066739448	1.4021801	-0.13771554	-0.0070825428	1.0337662	-0.38515028	-0.12134389	1.0599159	0.14408947	0.18408166	0.90372743	-0.49030589	-0.038059252	0.90469143	0.31746048
263	1.048	-0.030009933	0.016211841	-0.16648941	0.41538106	0.097113188	0.058477278	-0.161205	0.047106325	-0.18860287	0.272601	0.09581557	0.049168639	-0.14457783	0.068359979	-0.10306601	0.31513295	0.12458889	-0.02429774	-0.23035899	0.025232512	-0.1433814	0.24474875	0.061618672	-0.0089838373	0.0020639004	0.39702101	-0.22504349	0.24970656	0.50066795	0.056584102	0.0024636701	0.37904192	-0.10540494	0.28691793	0.50931001	-0.064912782	0.0062901452	0.7922408	-0.30034608	0.0025622635	0.81237876	0.08059979	0.057277221	0.90195768	-0.23686636	0.066950325	0.90850608	0.010358537	-0.1466489	0.91117731	-0.11034632	0.042821722	1.3641462	-0.27985358	-0.0033075191	1.3744299	0.040270211	-0.061268092	1.4023316	-0.13719935	-0.0019441953	1.0339848	-0.38432611	-0.1183971	1.0610402	0.14361547	0.19264336	0.90556814	-0.48883537	-0.038507438	0.90444093	0.31717952
264	1.052	-0.029992735	0.016225132	-0.16646433	0.43373561	0.098895324	0.056808658	-0.1611128	0.04754825	-0.18814694	0.29070658	0.094548952	0.049800281	-0.14424446	0.068779717	-0.10264587	0.33155439	0.12454774	-0.024078007	-0.2302145	0.025916688	-0.14268279	0.26285812	0.060040897	-0.0080701429	0.0025906602	0.39688099	-0.2249148	0.25524159	0.49893721	0.057099178	0.0038306735	0.3790858	-0.10560675	0.29174948	0.50771752	-0.064376972	0.0096897938	0.79240913	-0.30027462	0.0090302377	0.81278812	0.080993829	0.06168854	0.90202851	-0.23713445	0.07333187	0.90864612	0.010606545	-0.14226501	0.91151261	-0.10839917	0.047824482	1.3644283	-0.27961094	0.0027527828	1.3744496	0.040509548	-0.055818149	1.4024604	-0.13666868	0.0023471112	1.0343625	-0.38281018	-0.1152309	1.0621203	0.14295931	0.20111224	0.90740874	-0.48733038	-0.038882001	0.90422609	0.31678506
265	1.056	-0.029981477	0.016238569	-0.16643761	0.45160037	0.10090847	0.055007322	-0.16101237	0.048016541	-0.1876906	0.30837074	0.093566382	0.050436412	-0.14388302	0.069210557	-0.10223417	0.34750955	0.12470545	-0.023890774	-0.2300678	0.026639859	-0.14202994	0.28051308	0.05872734	-0.0071083196	0.0034419652	0.39686095	-0.22497576	0.26069478	0.49698623	0.057412095	0.0052495642	0.37915521	-0.10578614	0.29648082	0.50586059	-0.063852557	0.013082036	0.79257706	-0.30022971	0.015543023	0.81315624	0.081369432	0.066125426	0.90211039	-0.23737817	0.079753701	0.90880467	0.010853318	-0.13779107	0.91179811	-0.10639616	0.052787649	1.3646921	-0.27933457	0.0088129199	1.3744558	0.040748321	-0.050386464	1.4025652	-0.13612391	0.006458281	1.0347419	-0.38108015	-0.11180593	1.0631606	0.14208154	0.20950064	0.90924672	-0.48578082	-0.03916963	0.90404673	0.31628456
